<svg width="10" height="10" viewBox="0 0 10 10" fill="none" xmlns="http://www.w3.org/2000/svg">
<path fill-rule="evenodd" clip-rule="evenodd" d="M5 10C7.76142 10 10 7.76142 10 5C10 2.23858 7.76142 0 5 0C2.23858 0 0 2.23858 0 5C0 7.76142 2.23858 10 5 10ZM8.12629 3.32925C8.30813 3.12143 8.28707 2.80555 8.07925 2.62371C7.87143 2.44187 7.55555 2.46293 7.37371 2.67075L4.22565 6.26854L2.60355 4.64645C2.40829 4.45118 2.09171 4.45118 1.89645 4.64645C1.70118 4.84171 1.70118 5.15829 1.89645 5.35355L3.89645 7.35355C3.9943 7.45141 4.12833 7.50433 4.26664 7.49972C4.40495 7.49512 4.53516 7.4334 4.62629 7.32925L8.12629 3.32925Z" fill="#77DD77"/>
</svg>
