<svg width="43" height="40" viewBox="0 0 43 40" fill="none" xmlns="http://www.w3.org/2000/svg">
<path d="M6.01604 38.7914V20.5125C6.31669 18.5487 11.43 14.3188 15.1899 14.3188C19.2504 14.3188 24.2136 19.0019 24.3641 20.5125V26.4041C24.3641 27.1594 24.8153 27.6126 25.5672 27.6126H29.1767C29.9287 27.6126 30.38 27.1594 30.38 26.4041V16.8869C30.3797 15.9805 30.2293 15.1371 28.575 14.1678C26.9207 13.1984 20.4036 9.53507 16.6939 7.52086C16.0482 7.17028 14.7388 7.06772 13.8365 7.52086C12.9689 7.95661 2.5532 13.8657 1.50394 14.4699C0.858175 14.8418 0 15.8295 0 17.0381C0 17.7199 0.0502828 31.7417 0.000151491 38.7914C0.000151491 39.5468 0.451331 40 1.2033 40H4.81276C5.56472 40 6.01604 39.5468 6.01604 38.7914Z" fill="url(#paint0_radial_31_4)"/>
<path d="M12.1819 23.7977C12.1819 22.7402 13.3851 20.9652 15.3402 20.9652C17.2953 20.9652 18.3481 22.7402 18.3481 23.7977V32.7489C18.3481 33.5042 18.7992 33.9574 19.5512 33.9574H35.4931C36.2451 33.9574 36.6964 33.5037 36.6964 32.7483V13.4125C36.6961 12.5061 36.5457 11.6621 34.8914 10.6928L22.2507 3.10364C22.0527 2.9848 22.0561 2.69564 22.2567 2.58144L26.3189 0.269241C26.9205 -0.0328957 27.9733 -0.183965 29.026 0.382565C29.881 0.842709 37.7486 5.406 40.9069 7.36985C42.5612 8.33919 42.7116 9.18264 42.7119 10.089V38.7915C42.7119 39.5468 42.2605 40 41.5086 40L13.4607 40C12.7088 40 12.2576 39.5468 12.2576 38.7914L12.1819 23.7977Z" fill="url(#paint1_radial_31_4)"/>
<defs>
<radialGradient id="paint0_radial_31_4" cx="0" cy="0" r="1" gradientUnits="userSpaceOnUse" gradientTransform="translate(21.3559 20) rotate(-0.249216) scale(21.2057 31.205)">
<stop stop-color="#FFBD69"/>
<stop offset="1" stop-color="#FF6266"/>
</radialGradient>
<radialGradient id="paint1_radial_31_4" cx="0" cy="0" r="1" gradientUnits="userSpaceOnUse" gradientTransform="translate(21.3559 20) rotate(-0.249216) scale(21.2057 31.205)">
<stop stop-color="#FFBD69"/>
<stop offset="1" stop-color="#FF6266"/>
</radialGradient>
</defs>
</svg>
